<svg width="24" height="24" viewBox="0 0 24 24" fill="none" xmlns="http://www.w3.org/2000/svg">
<g clip-path="url(#clip0_3_2134)">
<path fill-rule="evenodd" clip-rule="evenodd" d="M10.7501 2.56701C11.1301 2.34759 11.5612 2.23207 12.0001 2.23207C12.4389 2.23207 12.87 2.34759 13.2501 2.56701L19.5441 6.20101C19.9241 6.42042 20.2397 6.73601 20.4591 7.11604C20.6785 7.49608 20.794 7.92718 20.7941 8.36601V15.634C20.794 16.0728 20.6785 16.5039 20.4591 16.884C20.2397 17.264 19.9241 17.5796 19.5441 17.799L13.2501 21.433C12.87 21.6524 12.4389 21.7679 12.0001 21.7679C11.5612 21.7679 11.1301 21.6524 10.7501 21.433L4.45605 17.799C4.07602 17.5796 3.76043 17.264 3.54101 16.884C3.32159 16.5039 3.20607 16.0728 3.20605 15.634V8.36601C3.20607 7.92718 3.32159 7.49608 3.54101 7.11604C3.76043 6.73601 4.07602 6.42042 4.45605 6.20101L10.7501 2.56701ZM8.01905 8.54701L13.8171 5.20401L15.8181 6.35901L10.0201 9.70201L8.01905 8.54701Z" fill="#8C8C8C"/>
</g>
<defs>
<clipPath id="clip0_3_2134">
<rect width="24" height="24" fill="white"/>
</clipPath>
</defs>
</svg>
