<svg width="18" height="18" viewBox="0 0 18 18" fill="none" xmlns="http://www.w3.org/2000/svg">
<path fill-rule="evenodd" clip-rule="evenodd" d="M8.06248 1.92524C8.34752 1.76068 8.67085 1.67404 8.99998 1.67404C9.32911 1.67404 9.65244 1.76068 9.93748 1.92524L14.658 4.65074C14.943 4.81531 15.1797 5.05199 15.3443 5.33702C15.5088 5.62205 15.5955 5.94537 15.5955 6.27449V11.7255C15.5955 12.0546 15.5088 12.3779 15.3443 12.663C15.1797 12.948 14.943 13.1847 14.658 13.3492L9.93748 16.0747C9.65244 16.2393 9.32911 16.3259 8.99998 16.3259C8.67085 16.3259 8.34752 16.2393 8.06248 16.0747L3.34198 13.3492C3.05695 13.1847 2.82026 12.948 2.65569 12.663C2.49113 12.3779 2.40449 12.0546 2.40448 11.7255V6.27449C2.40449 5.94537 2.49113 5.62205 2.65569 5.33702C2.82026 5.05199 3.05695 4.81531 3.34198 4.65074L8.06248 1.92524ZM6.01423 6.41024L10.3627 3.90299L11.8635 4.76924L7.51498 7.27649L6.01423 6.41024Z" fill="#8C8C8C"/>
</svg>
