<svg width="18" height="18" viewBox="0 0 18 18" fill="none" xmlns="http://www.w3.org/2000/svg">
<path d="M9 1.5C13.1423 1.5 16.5 4.85775 16.5 9C16.5 13.1423 13.1423 16.5 9 16.5C4.85775 16.5 1.5 13.1423 1.5 9C1.5 4.85775 4.85775 1.5 9 1.5ZM9 4.5C8.80109 4.5 8.61032 4.57902 8.46967 4.71967C8.32902 4.86032 8.25 5.05109 8.25 5.25V9C8.25004 9.1989 8.32909 9.38963 8.46975 9.53025L10.7198 11.7803C10.8612 11.9169 11.0507 11.9925 11.2473 11.9908C11.4439 11.989 11.6321 11.9102 11.7711 11.7711C11.9102 11.6321 11.989 11.4439 11.9908 11.2473C11.9925 11.0507 11.9169 10.8612 11.7803 10.7198L9.75 8.6895V5.25C9.75 5.15151 9.7306 5.05398 9.69291 4.96299C9.65522 4.87199 9.59997 4.78931 9.53033 4.71967C9.46069 4.65003 9.37801 4.59478 9.28701 4.55709C9.19602 4.5194 9.09849 4.5 9 4.5Z" fill="#8C8C8C"/>
</svg>
