<svg width="56" height="56" viewBox="0 0 56 56" fill="none" xmlns="http://www.w3.org/2000/svg">
<rect width="56" height="56" rx="12" fill="#0E8345"/>
<g clip-path="url(#clip0_3_2050)">
<path fill-rule="evenodd" clip-rule="evenodd" d="M37.9933 16.1773C38.2887 15.9996 38.6415 15.9432 38.9777 16.0201C39.3138 16.0969 39.6071 16.3009 39.796 16.5893L41.116 18.6027C41.288 18.8657 41.3617 19.181 41.3239 19.4931C41.286 19.8051 41.1392 20.0937 40.9093 20.308L40.9053 20.3133L40.8866 20.3307L40.8106 20.4013L40.5106 20.688C38.8506 22.2981 37.241 23.9594 35.684 25.6693C32.7546 28.8907 29.276 33.1067 26.9346 37.1973C26.2813 38.3387 24.6853 38.584 23.7386 37.5987L15.092 28.6147C14.9681 28.4859 14.8713 28.3335 14.8075 28.1665C14.7436 27.9996 14.714 27.8215 14.7203 27.6429C14.7267 27.4643 14.7689 27.2888 14.8444 27.1268C14.9199 26.9648 15.0272 26.8197 15.16 26.7L17.7733 24.3427C18.003 24.1356 18.2974 24.0148 18.6063 24.001C18.9152 23.9871 19.2194 24.081 19.4666 24.2667L23.8786 27.5747C30.7706 20.7787 34.6786 18.1707 37.9933 16.1773Z" fill="white"/>
</g>
<defs>
<clipPath id="clip0_3_2050">
<rect width="32" height="32" fill="white" transform="translate(12 12)"/>
</clipPath>
</defs>
</svg>
